<?xml version="1.0" encoding="utf-8" standalone="no"?>
<!DOCTYPE svg PUBLIC "-//W3C//DTD SVG 1.1//EN"
  "http://www.w3.org/Graphics/SVG/1.1/DTD/svg11.dtd">
<!-- Created with matplotlib (https://matplotlib.org/) -->
<svg height="288pt" version="1.1" viewBox="0 0 432 288" width="432pt" xmlns="http://www.w3.org/2000/svg" xmlns:xlink="http://www.w3.org/1999/xlink">
 <defs>
  <style type="text/css">
*{stroke-linecap:butt;stroke-linejoin:round;}
  </style>
 </defs>
 <g id="figure_1">
  <g id="patch_1">
   <path d="M 0 288 
L 432 288 
L 432 0 
L 0 0 
z
" style="fill:#ffffff;"/>
  </g>
  <g id="axes_1">
   <g id="patch_2">
    <path d="M 54 252 
L 388.8 252 
L 388.8 34.56 
L 54 34.56 
z
" style="fill:#ffffff;"/>
   </g>
   <g id="matplotlib.axis_1">
    <g id="xtick_1">
     <g id="line2d_1">
      <defs>
       <path d="M 0 0 
L 0 3.5 
" id="m29b82fda96" style="stroke:#000000;stroke-width:0.8;"/>
      </defs>
      <g>
       <use style="stroke:#000000;stroke-width:0.8;" x="69.218182" xlink:href="#m29b82fda96" y="252"/>
      </g>
     </g>
     <g id="text_1">
      <!-- 0.00 -->
      <defs>
       <path d="M 3.125 29.296875 
Q 3.90625 50 6.4375 56.046875 
Q 8.984375 62.109375 13.671875 66.015625 
Q 18.359375 69.921875 25.1875 69.921875 
Q 32.03125 69.921875 37.109375 64.25 
Q 42.1875 58.59375 43.75 50 
Q 45.3125 41.40625 44.71875 30.265625 
Q 44.140625 19.140625 40.8125 12.109375 
Q 37.5 5.078125 30.859375 2.34375 
Q 24.21875 -0.390625 17.578125 2.921875 
Q 10.9375 6.25 8.203125 11.71875 
Q 5.46875 17.1875 4.296875 23.234375 
Q 3.125 29.296875 3.90625 50 
z
M 12.890625 52.734375 
Q 10.546875 31.25 12.5 22.84375 
Q 14.453125 14.453125 18.9375 10.9375 
Q 23.4375 7.421875 28.125 9.5625 
Q 32.8125 11.71875 34.953125 18.15625 
Q 37.109375 24.609375 37.109375 32.21875 
Q 37.109375 39.84375 36.515625 46.09375 
Q 35.9375 52.34375 33 57.421875 
Q 30.078125 62.5 25.1875 62.6875 
Q 20.3125 62.890625 16.59375 57.8125 
Q 12.890625 52.734375 10.546875 31.25 
z
" id="SimHei-48"/>
       <path d="M 16.796875 1.953125 
L 7.8125 1.953125 
L 7.8125 10.546875 
L 16.796875 10.546875 
z
" id="SimHei-46"/>
      </defs>
      <g transform="translate(59.218182 265.875)scale(0.1 -0.1)">
       <use xlink:href="#SimHei-48"/>
       <use x="50" xlink:href="#SimHei-46"/>
       <use x="100" xlink:href="#SimHei-48"/>
       <use x="150" xlink:href="#SimHei-48"/>
      </g>
     </g>
    </g>
    <g id="xtick_2">
     <g id="line2d_2">
      <g>
       <use style="stroke:#000000;stroke-width:0.8;" x="107.263636" xlink:href="#m29b82fda96" y="252"/>
      </g>
     </g>
     <g id="text_2">
      <!-- 0.25 -->
      <defs>
       <path d="M 4.6875 3.90625 
Q 5.078125 9.765625 10.15625 14.453125 
Q 15.234375 19.140625 23.046875 29.09375 
Q 30.859375 39.0625 33.203125 44.53125 
Q 35.546875 50 34.953125 53.90625 
Q 34.375 57.8125 31.25 60.34375 
Q 28.125 62.890625 24.015625 62.5 
Q 19.921875 62.109375 16.203125 59.375 
Q 12.5 56.640625 10.546875 51.171875 
L 3.125 52.34375 
Q 6.25 61.328125 11.125 65.421875 
Q 16.015625 69.53125 22.65625 69.921875 
Q 26.5625 70.3125 29.6875 69.71875 
Q 32.8125 69.140625 36.125 66.984375 
Q 39.453125 64.84375 41.59375 60.546875 
Q 43.75 56.25 43.15625 50.1875 
Q 42.578125 44.140625 37.109375 35.734375 
Q 31.640625 27.34375 16.015625 9.375 
L 44.140625 9.375 
L 44.140625 2.34375 
L 4.6875 2.34375 
z
" id="SimHei-50"/>
       <path d="M 8.59375 20.703125 
Q 11.328125 10.15625 17.96875 8.984375 
Q 24.609375 7.8125 28.703125 10.34375 
Q 32.8125 12.890625 34.5625 16.984375 
Q 36.328125 21.09375 36.125 26.171875 
Q 35.9375 31.25 33.390625 34.765625 
Q 30.859375 38.28125 26.953125 39.453125 
Q 23.046875 40.625 18.15625 39.453125 
Q 13.28125 38.28125 10.15625 33.984375 
L 3.515625 34.765625 
Q 4.296875 37.109375 10.9375 68.359375 
L 41.796875 68.359375 
L 41.796875 61.328125 
L 16.796875 61.328125 
Q 14.84375 50.78125 12.890625 44.53125 
Q 18.75 47.265625 23.828125 47.0625 
Q 28.90625 46.875 33.59375 44.71875 
Q 38.28125 42.578125 40.421875 38.859375 
Q 42.578125 35.15625 43.546875 31.4375 
Q 44.53125 27.734375 44.328125 23.4375 
Q 44.140625 19.140625 42.578125 14.640625 
Q 41.015625 10.15625 37.890625 7.21875 
Q 34.765625 4.296875 30.265625 2.53125 
Q 25.78125 0.78125 19.921875 1.171875 
Q 14.0625 1.5625 8.78125 5.46875 
Q 3.515625 9.375 1.5625 18.75 
z
" id="SimHei-53"/>
      </defs>
      <g transform="translate(97.263636 265.875)scale(0.1 -0.1)">
       <use xlink:href="#SimHei-48"/>
       <use x="50" xlink:href="#SimHei-46"/>
       <use x="100" xlink:href="#SimHei-50"/>
       <use x="150" xlink:href="#SimHei-53"/>
      </g>
     </g>
    </g>
    <g id="xtick_3">
     <g id="line2d_3">
      <g>
       <use style="stroke:#000000;stroke-width:0.8;" x="145.309091" xlink:href="#m29b82fda96" y="252"/>
      </g>
     </g>
     <g id="text_3">
      <!-- 0.50 -->
      <g transform="translate(135.309091 265.875)scale(0.1 -0.1)">
       <use xlink:href="#SimHei-48"/>
       <use x="50" xlink:href="#SimHei-46"/>
       <use x="100" xlink:href="#SimHei-53"/>
       <use x="150" xlink:href="#SimHei-48"/>
      </g>
     </g>
    </g>
    <g id="xtick_4">
     <g id="line2d_4">
      <g>
       <use style="stroke:#000000;stroke-width:0.8;" x="183.354545" xlink:href="#m29b82fda96" y="252"/>
      </g>
     </g>
     <g id="text_4">
      <!-- 0.75 -->
      <defs>
       <path d="M 13.28125 2.34375 
Q 20.3125 32.03125 37.890625 61.328125 
L 4.296875 61.328125 
L 4.296875 68.359375 
L 46.09375 68.359375 
L 46.09375 61.71875 
Q 27.734375 32.03125 21.875 2.34375 
L 13.28125 2.34375 
z
" id="SimHei-55"/>
      </defs>
      <g transform="translate(173.354545 265.875)scale(0.1 -0.1)">
       <use xlink:href="#SimHei-48"/>
       <use x="50" xlink:href="#SimHei-46"/>
       <use x="100" xlink:href="#SimHei-55"/>
       <use x="150" xlink:href="#SimHei-53"/>
      </g>
     </g>
    </g>
    <g id="xtick_5">
     <g id="line2d_5">
      <g>
       <use style="stroke:#000000;stroke-width:0.8;" x="221.4" xlink:href="#m29b82fda96" y="252"/>
      </g>
     </g>
     <g id="text_5">
      <!-- 1.00 -->
      <defs>
       <path d="M 21.875 56.25 
Q 16.796875 51.171875 8.984375 46.484375 
L 8.984375 53.90625 
Q 18.75 60.546875 25 69.53125 
L 29.6875 69.53125 
L 29.6875 2.34375 
L 21.875 2.34375 
z
" id="SimHei-49"/>
      </defs>
      <g transform="translate(211.4 265.875)scale(0.1 -0.1)">
       <use xlink:href="#SimHei-49"/>
       <use x="50" xlink:href="#SimHei-46"/>
       <use x="100" xlink:href="#SimHei-48"/>
       <use x="150" xlink:href="#SimHei-48"/>
      </g>
     </g>
    </g>
    <g id="xtick_6">
     <g id="line2d_6">
      <g>
       <use style="stroke:#000000;stroke-width:0.8;" x="259.445455" xlink:href="#m29b82fda96" y="252"/>
      </g>
     </g>
     <g id="text_6">
      <!-- 1.25 -->
      <g transform="translate(249.445455 265.875)scale(0.1 -0.1)">
       <use xlink:href="#SimHei-49"/>
       <use x="50" xlink:href="#SimHei-46"/>
       <use x="100" xlink:href="#SimHei-50"/>
       <use x="150" xlink:href="#SimHei-53"/>
      </g>
     </g>
    </g>
    <g id="xtick_7">
     <g id="line2d_7">
      <g>
       <use style="stroke:#000000;stroke-width:0.8;" x="297.490909" xlink:href="#m29b82fda96" y="252"/>
      </g>
     </g>
     <g id="text_7">
      <!-- 1.50 -->
      <g transform="translate(287.490909 265.875)scale(0.1 -0.1)">
       <use xlink:href="#SimHei-49"/>
       <use x="50" xlink:href="#SimHei-46"/>
       <use x="100" xlink:href="#SimHei-53"/>
       <use x="150" xlink:href="#SimHei-48"/>
      </g>
     </g>
    </g>
    <g id="xtick_8">
     <g id="line2d_8">
      <g>
       <use style="stroke:#000000;stroke-width:0.8;" x="335.536364" xlink:href="#m29b82fda96" y="252"/>
      </g>
     </g>
     <g id="text_8">
      <!-- 1.75 -->
      <g transform="translate(325.536364 265.875)scale(0.1 -0.1)">
       <use xlink:href="#SimHei-49"/>
       <use x="50" xlink:href="#SimHei-46"/>
       <use x="100" xlink:href="#SimHei-55"/>
       <use x="150" xlink:href="#SimHei-53"/>
      </g>
     </g>
    </g>
    <g id="xtick_9">
     <g id="line2d_9">
      <g>
       <use style="stroke:#000000;stroke-width:0.8;" x="373.581818" xlink:href="#m29b82fda96" y="252"/>
      </g>
     </g>
     <g id="text_9">
      <!-- 2.00 -->
      <g transform="translate(363.581818 265.875)scale(0.1 -0.1)">
       <use xlink:href="#SimHei-50"/>
       <use x="50" xlink:href="#SimHei-46"/>
       <use x="100" xlink:href="#SimHei-48"/>
       <use x="150" xlink:href="#SimHei-48"/>
      </g>
     </g>
    </g>
    <g id="text_10">
     <!-- $\lambda$ -->
     <defs>
      <path d="M 36.71875 67.4375 
L 48.828125 0 
L 39.3125 0 
L 31.84375 40.4375 
L 5.125 0 
L -4.390625 0 
L 29.734375 52.4375 
L 28.03125 62.109375 
Q 26.953125 68.265625 21.734375 68.265625 
L 17.046875 68.265625 
L 18.5 75.984375 
L 24.21875 75.875 
Q 35.203125 75.734375 36.71875 67.4375 
z
" id="DejaVuSans-Oblique-955"/>
     </defs>
     <g transform="translate(218.4 278)scale(0.1 -0.1)">
      <use transform="translate(0 0.015625)" xlink:href="#DejaVuSans-Oblique-955"/>
     </g>
    </g>
   </g>
   <g id="matplotlib.axis_2">
    <g id="ytick_1">
     <g id="line2d_10">
      <defs>
       <path d="M 0 0 
L -3.5 0 
" id="m5e33cdff44" style="stroke:#000000;stroke-width:0.8;"/>
      </defs>
      <g>
       <use style="stroke:#000000;stroke-width:0.8;" x="54" xlink:href="#m5e33cdff44" y="244.574854"/>
      </g>
     </g>
     <g id="text_11">
      <!-- 0.00 -->
      <g transform="translate(27 248.012354)scale(0.1 -0.1)">
       <use xlink:href="#SimHei-48"/>
       <use x="50" xlink:href="#SimHei-46"/>
       <use x="100" xlink:href="#SimHei-48"/>
       <use x="150" xlink:href="#SimHei-48"/>
      </g>
     </g>
    </g>
    <g id="ytick_2">
     <g id="line2d_11">
      <g>
       <use style="stroke:#000000;stroke-width:0.8;" x="54" xlink:href="#m5e33cdff44" y="218.322997"/>
      </g>
     </g>
     <g id="text_12">
      <!-- 0.25 -->
      <g transform="translate(27 221.760497)scale(0.1 -0.1)">
       <use xlink:href="#SimHei-48"/>
       <use x="50" xlink:href="#SimHei-46"/>
       <use x="100" xlink:href="#SimHei-50"/>
       <use x="150" xlink:href="#SimHei-53"/>
      </g>
     </g>
    </g>
    <g id="ytick_3">
     <g id="line2d_12">
      <g>
       <use style="stroke:#000000;stroke-width:0.8;" x="54" xlink:href="#m5e33cdff44" y="192.07114"/>
      </g>
     </g>
     <g id="text_13">
      <!-- 0.50 -->
      <g transform="translate(27 195.50864)scale(0.1 -0.1)">
       <use xlink:href="#SimHei-48"/>
       <use x="50" xlink:href="#SimHei-46"/>
       <use x="100" xlink:href="#SimHei-53"/>
       <use x="150" xlink:href="#SimHei-48"/>
      </g>
     </g>
    </g>
    <g id="ytick_4">
     <g id="line2d_13">
      <g>
       <use style="stroke:#000000;stroke-width:0.8;" x="54" xlink:href="#m5e33cdff44" y="165.819284"/>
      </g>
     </g>
     <g id="text_14">
      <!-- 0.75 -->
      <g transform="translate(27 169.256784)scale(0.1 -0.1)">
       <use xlink:href="#SimHei-48"/>
       <use x="50" xlink:href="#SimHei-46"/>
       <use x="100" xlink:href="#SimHei-55"/>
       <use x="150" xlink:href="#SimHei-53"/>
      </g>
     </g>
    </g>
    <g id="ytick_5">
     <g id="line2d_14">
      <g>
       <use style="stroke:#000000;stroke-width:0.8;" x="54" xlink:href="#m5e33cdff44" y="139.567427"/>
      </g>
     </g>
     <g id="text_15">
      <!-- 1.00 -->
      <g transform="translate(27 143.004927)scale(0.1 -0.1)">
       <use xlink:href="#SimHei-49"/>
       <use x="50" xlink:href="#SimHei-46"/>
       <use x="100" xlink:href="#SimHei-48"/>
       <use x="150" xlink:href="#SimHei-48"/>
      </g>
     </g>
    </g>
    <g id="ytick_6">
     <g id="line2d_15">
      <g>
       <use style="stroke:#000000;stroke-width:0.8;" x="54" xlink:href="#m5e33cdff44" y="113.31557"/>
      </g>
     </g>
     <g id="text_16">
      <!-- 1.25 -->
      <g transform="translate(27 116.75307)scale(0.1 -0.1)">
       <use xlink:href="#SimHei-49"/>
       <use x="50" xlink:href="#SimHei-46"/>
       <use x="100" xlink:href="#SimHei-50"/>
       <use x="150" xlink:href="#SimHei-53"/>
      </g>
     </g>
    </g>
    <g id="ytick_7">
     <g id="line2d_16">
      <g>
       <use style="stroke:#000000;stroke-width:0.8;" x="54" xlink:href="#m5e33cdff44" y="87.063713"/>
      </g>
     </g>
     <g id="text_17">
      <!-- 1.50 -->
      <g transform="translate(27 90.501213)scale(0.1 -0.1)">
       <use xlink:href="#SimHei-49"/>
       <use x="50" xlink:href="#SimHei-46"/>
       <use x="100" xlink:href="#SimHei-53"/>
       <use x="150" xlink:href="#SimHei-48"/>
      </g>
     </g>
    </g>
    <g id="ytick_8">
     <g id="line2d_17">
      <g>
       <use style="stroke:#000000;stroke-width:0.8;" x="54" xlink:href="#m5e33cdff44" y="60.811857"/>
      </g>
     </g>
     <g id="text_18">
      <!-- 1.75 -->
      <g transform="translate(27 64.249357)scale(0.1 -0.1)">
       <use xlink:href="#SimHei-49"/>
       <use x="50" xlink:href="#SimHei-46"/>
       <use x="100" xlink:href="#SimHei-55"/>
       <use x="150" xlink:href="#SimHei-53"/>
      </g>
     </g>
    </g>
    <g id="ytick_9">
     <g id="line2d_18">
      <g>
       <use style="stroke:#000000;stroke-width:0.8;" x="54" xlink:href="#m5e33cdff44" y="34.56"/>
      </g>
     </g>
     <g id="text_19">
      <!-- 2.00 -->
      <g transform="translate(27 37.9975)scale(0.1 -0.1)">
       <use xlink:href="#SimHei-50"/>
       <use x="50" xlink:href="#SimHei-46"/>
       <use x="100" xlink:href="#SimHei-48"/>
       <use x="150" xlink:href="#SimHei-48"/>
      </g>
     </g>
    </g>
    <g id="text_20">
     <!-- response -->
     <defs>
      <path d="M 39.0625 37.890625 
Q 31.640625 39.0625 26.5625 35.734375 
Q 21.484375 32.421875 17.96875 24.21875 
L 17.96875 1.953125 
L 10.15625 1.953125 
L 10.15625 45.703125 
L 17.96875 45.703125 
L 17.96875 34.375 
Q 21.484375 40.625 26.75 43.546875 
Q 32.03125 46.484375 39.0625 46.484375 
z
" id="SimHei-114"/>
      <path d="M 44.53125 16.796875 
Q 43.75 9.765625 38.28125 5.46875 
Q 32.8125 1.171875 25.390625 1.171875 
Q 16.015625 1.171875 9.953125 7.21875 
Q 3.90625 13.28125 3.90625 23.828125 
Q 3.90625 34.375 9.953125 40.421875 
Q 16.015625 46.484375 25.390625 46.484375 
Q 33.59375 46.484375 38.859375 41.203125 
Q 44.140625 35.9375 44.140625 23.828125 
L 12.5 23.828125 
Q 12.5 15.234375 16.203125 11.71875 
Q 19.921875 8.203125 25.390625 8.203125 
Q 29.6875 8.203125 32.421875 10.34375 
Q 35.15625 12.5 35.9375 16.796875 
z
M 35.15625 30.078125 
Q 34.375 35.546875 31.640625 37.6875 
Q 28.90625 39.84375 24.609375 39.84375 
Q 20.703125 39.84375 17.578125 37.6875 
Q 14.453125 35.546875 12.890625 30.078125 
z
" id="SimHei-101"/>
      <path d="M 42.96875 14.0625 
Q 42.96875 7.8125 38.078125 4.484375 
Q 33.203125 1.171875 25.78125 1.171875 
Q 16.40625 1.171875 11.328125 4.875 
Q 6.25 8.59375 6.25 15.625 
L 14.0625 15.625 
Q 14.0625 10.9375 17.375 9.375 
Q 20.703125 7.8125 25.390625 7.8125 
Q 30.078125 7.8125 32.421875 9.5625 
Q 34.765625 11.328125 34.765625 14.0625 
Q 34.765625 16.015625 32.8125 17.96875 
Q 30.859375 19.921875 23.046875 21.09375 
Q 14.0625 22.265625 10.734375 25.578125 
Q 7.421875 28.90625 7.421875 34.375 
Q 7.421875 39.0625 11.90625 42.765625 
Q 16.40625 46.484375 25 46.484375 
Q 32.8125 46.484375 37.296875 42.96875 
Q 41.796875 39.453125 41.796875 33.59375 
L 33.984375 33.59375 
Q 33.984375 37.109375 31.4375 38.46875 
Q 28.90625 39.84375 25 39.84375 
Q 19.921875 39.84375 17.765625 38.078125 
Q 15.625 36.328125 15.625 33.984375 
Q 15.625 31.25 17.578125 29.6875 
Q 19.53125 28.125 25.78125 27.34375 
Q 35.9375 25.78125 39.453125 22.453125 
Q 42.96875 19.140625 42.96875 14.0625 
z
" id="SimHei-115"/>
      <path d="M 44.140625 23.828125 
Q 44.140625 12.5 38.671875 6.640625 
Q 33.203125 0.78125 25.390625 0.78125 
Q 21.09375 0.78125 17.96875 2.53125 
Q 14.84375 4.296875 12.5 7.8125 
L 12.5 -12.5 
L 4.6875 -12.5 
L 4.6875 45.703125 
L 12.5 45.703125 
L 12.5 39.84375 
Q 14.84375 43.359375 17.96875 44.921875 
Q 21.09375 46.484375 25.390625 46.484375 
Q 33.203125 46.484375 38.671875 40.8125 
Q 44.140625 35.15625 44.140625 23.828125 
z
M 35.546875 23.828125 
Q 35.546875 31.25 32.609375 35.34375 
Q 29.6875 39.453125 23.828125 39.453125 
Q 19.140625 39.453125 15.8125 35.34375 
Q 12.5 31.25 12.5 23.828125 
Q 12.5 16.40625 15.8125 12.109375 
Q 19.140625 7.8125 23.828125 7.8125 
Q 29.6875 7.8125 32.609375 12.109375 
Q 35.546875 16.40625 35.546875 23.828125 
z
" id="SimHei-112"/>
      <path d="M 45.703125 23.828125 
Q 45.703125 13.671875 39.453125 7.421875 
Q 33.203125 1.171875 24.609375 1.171875 
Q 16.015625 1.171875 9.765625 7.421875 
Q 3.515625 13.671875 3.515625 23.828125 
Q 3.515625 33.984375 9.765625 40.234375 
Q 16.015625 46.484375 24.609375 46.484375 
Q 33.203125 46.484375 39.453125 40.234375 
Q 45.703125 33.984375 45.703125 23.828125 
z
M 37.109375 23.828125 
Q 37.109375 31.640625 33.203125 35.546875 
Q 29.296875 39.453125 24.609375 39.453125 
Q 19.921875 39.453125 16.015625 35.546875 
Q 12.109375 31.640625 12.109375 23.828125 
Q 12.109375 16.015625 16.015625 12.109375 
Q 19.921875 8.203125 24.609375 8.203125 
Q 29.296875 8.203125 33.203125 12.109375 
Q 37.109375 16.015625 37.109375 23.828125 
z
" id="SimHei-111"/>
      <path d="M 43.75 1.953125 
L 35.9375 1.953125 
L 35.9375 30.078125 
Q 35.9375 34.765625 33.59375 37.5 
Q 31.25 40.234375 27.34375 40.234375 
Q 22.265625 40.234375 17.765625 34.953125 
Q 13.28125 29.6875 13.28125 21.875 
L 13.28125 1.953125 
L 5.46875 1.953125 
L 5.46875 45.703125 
L 13.28125 45.703125 
L 13.28125 37.5 
Q 16.40625 41.796875 20.109375 44.140625 
Q 23.828125 46.484375 29.6875 46.484375 
Q 36.71875 46.484375 40.234375 42.578125 
Q 43.75 38.671875 43.75 32.8125 
z
" id="SimHei-110"/>
     </defs>
     <g transform="translate(21.75 163.28)rotate(-90)scale(0.1 -0.1)">
      <use xlink:href="#SimHei-114"/>
      <use x="50" xlink:href="#SimHei-101"/>
      <use x="100" xlink:href="#SimHei-115"/>
      <use x="150" xlink:href="#SimHei-112"/>
      <use x="200" xlink:href="#SimHei-111"/>
      <use x="250" xlink:href="#SimHei-110"/>
      <use x="300" xlink:href="#SimHei-115"/>
      <use x="350" xlink:href="#SimHei-101"/>
     </g>
    </g>
   </g>
   <g id="line2d_19">
    <path clip-path="url(#p9cb4068445)" d="M 69.218182 96.071929 
L 72.292562 96.071929 
L 75.366942 96.071929 
L 78.441323 96.071929 
L 81.515702 96.071929 
L 84.590082 96.071929 
L 87.664463 96.071929 
L 90.738842 96.071929 
L 93.813223 96.071929 
L 96.887604 96.071929 
L 99.961983 96.071929 
L 103.036364 96.071929 
L 106.110745 96.071929 
L 109.185124 96.071929 
L 112.259502 96.071929 
L 115.333886 96.071929 
L 118.408264 96.071929 
L 121.482643 96.071929 
L 124.557026 96.071929 
L 127.631405 96.071929 
L 130.705784 96.071929 
L 133.780167 96.071929 
L 136.854546 96.071929 
L 139.928925 96.071929 
L 143.003308 96.071929 
L 146.077682 96.071929 
L 149.152065 96.071929 
L 152.226449 96.071929 
L 155.300823 96.071929 
L 158.375206 96.071929 
L 161.44959 96.071929 
L 164.523964 96.071929 
L 167.598347 96.071929 
L 170.67273 96.071929 
L 173.747105 96.27249 
L 176.821488 96.859152 
L 179.895871 97.811499 
L 182.970245 99.111353 
L 186.044629 100.742568 
L 189.119012 102.690635 
L 192.193386 104.942398 
L 195.267769 107.48599 
L 198.342153 110.310583 
L 201.416527 113.406262 
L 204.49091 116.76389 
L 207.565293 120.37508 
L 210.639668 124.232046 
L 213.714051 128.327627 
L 216.788434 132.655077 
L 219.862808 137.208136 
L 222.937183 141.980971 
L 226.011566 146.968086 
L 229.085949 152.164344 
L 232.160332 157.564912 
L 235.234716 163.165203 
L 238.309099 168.960879 
L 241.383464 174.947846 
L 244.457847 181.122306 
L 247.532231 187.480503 
L 250.606614 194.018976 
L 253.680997 200.73442 
L 256.755381 207.623637 
L 259.829746 214.683526 
L 262.904129 221.911353 
L 265.978512 229.304275 
L 269.052895 236.859612 
L 272.127279 244.574854 
L 275.201644 244.574854 
L 278.276027 244.574854 
L 281.35041 244.574854 
L 284.424794 244.574854 
L 287.499177 244.574854 
L 290.57356 244.574854 
L 293.647925 244.574854 
L 296.722309 244.574854 
L 299.796692 244.574854 
L 302.871075 244.574854 
L 305.945459 244.574854 
L 309.019842 244.574854 
L 312.094207 244.574854 
L 315.16859 244.574854 
L 318.242974 244.574854 
L 321.317357 244.574854 
L 324.39174 244.574854 
L 327.466123 244.574854 
L 330.540489 244.574854 
L 333.614872 244.574854 
L 336.689255 244.574854 
L 339.763638 244.574854 
L 342.838022 244.574854 
L 345.912405 244.574854 
L 348.98677 244.574854 
L 352.061153 244.574854 
L 355.135537 244.574854 
L 358.20992 244.574854 
L 361.284303 244.574854 
L 364.358686 244.574854 
L 367.433052 244.574854 
L 370.507435 244.574854 
L 373.581818 244.574854 
" style="fill:none;stroke:#ff0000;stroke-linecap:square;stroke-width:3;"/>
   </g>
   <g id="line2d_20">
    <path clip-path="url(#p9cb4068445)" d="M 69.218182 244.574854 
L 72.292562 244.574854 
L 75.366942 244.574854 
L 78.441323 244.574854 
L 81.515702 244.574854 
L 84.590082 244.574854 
L 87.664463 244.574854 
L 90.738842 244.574854 
L 93.813223 244.574854 
L 96.887604 244.574854 
L 99.961983 244.574854 
L 103.036364 244.574854 
L 106.110745 244.574854 
L 109.185124 244.574854 
L 112.259502 244.574854 
L 115.333886 244.574854 
L 118.408264 244.574854 
L 121.482643 244.574854 
L 124.557026 244.574854 
L 127.631405 244.574854 
L 130.705784 244.574854 
L 133.780167 244.574854 
L 136.854546 244.574854 
L 139.928925 244.574854 
L 143.003308 244.574854 
L 146.077682 244.574854 
L 149.152065 244.574854 
L 152.226449 244.574854 
L 155.300823 244.574854 
L 158.375206 244.574854 
L 161.44959 244.574854 
L 164.523964 244.574854 
L 167.598347 244.574854 
L 170.67273 244.574823 
L 173.747105 236.859612 
L 176.821488 229.304275 
L 179.895871 221.911353 
L 182.970245 214.683582 
L 186.044629 207.623584 
L 189.119012 200.73442 
L 192.193386 194.018976 
L 195.267769 187.480503 
L 198.342153 181.122306 
L 201.416527 174.947846 
L 204.49091 168.960879 
L 207.565293 163.165159 
L 210.639668 157.564912 
L 213.714051 152.164344 
L 216.788434 146.968086 
L 219.862808 141.980989 
L 222.937183 137.208136 
L 226.011566 132.655077 
L 229.085949 128.327627 
L 232.160332 124.232046 
L 235.234716 120.375055 
L 238.309099 116.763878 
L 241.383464 113.406262 
L 244.457847 110.310583 
L 247.532231 107.48599 
L 250.606614 104.942398 
L 253.680997 102.690635 
L 256.755381 100.742568 
L 259.829746 99.111353 
L 262.904129 97.811499 
L 265.978512 96.859152 
L 269.052895 96.27249 
L 272.127279 96.071929 
L 275.201644 96.071929 
L 278.276027 96.071929 
L 281.35041 96.071929 
L 284.424794 96.071929 
L 287.499177 96.071929 
L 290.57356 96.071929 
L 293.647925 96.071929 
L 296.722309 96.071929 
L 299.796692 96.071929 
L 302.871075 96.071929 
L 305.945459 96.071929 
L 309.019842 96.071929 
L 312.094207 96.071929 
L 315.16859 96.071929 
L 318.242974 96.071929 
L 321.317357 96.071929 
L 324.39174 96.071929 
L 327.466123 96.071929 
L 330.540489 96.071929 
L 333.614872 96.071929 
L 336.689255 96.071929 
L 339.763638 96.071929 
L 342.838022 96.071929 
L 345.912405 96.071929 
L 348.98677 96.071929 
L 352.061153 96.071929 
L 355.135537 96.071929 
L 358.20992 96.071929 
L 361.284303 96.071929 
L 364.358686 96.071929 
L 367.433052 96.071929 
L 370.507435 96.071929 
L 373.581818 96.071929 
" style="fill:none;stroke:#0000ff;stroke-linecap:square;stroke-width:3;"/>
   </g>
   <g id="patch_3">
    <path d="M 54 252 
L 54 34.56 
" style="fill:none;stroke:#000000;stroke-linecap:square;stroke-linejoin:miter;stroke-width:0.8;"/>
   </g>
   <g id="patch_4">
    <path d="M 388.8 252 
L 388.8 34.56 
" style="fill:none;stroke:#000000;stroke-linecap:square;stroke-linejoin:miter;stroke-width:0.8;"/>
   </g>
   <g id="patch_5">
    <path d="M 54 252 
L 388.8 252 
" style="fill:none;stroke:#000000;stroke-linecap:square;stroke-linejoin:miter;stroke-width:0.8;"/>
   </g>
   <g id="patch_6">
    <path d="M 54 34.56 
L 388.8 34.56 
" style="fill:none;stroke:#000000;stroke-linecap:square;stroke-linejoin:miter;stroke-width:0.8;"/>
   </g>
   <g id="legend_1">
    <g id="patch_7">
     <path d="M 325 71.26 
L 381.8 71.26 
Q 383.8 71.26 383.8 69.26 
L 383.8 41.56 
Q 383.8 39.56 381.8 39.56 
L 325 39.56 
Q 323 39.56 323 41.56 
L 323 69.26 
Q 323 71.26 325 71.26 
z
" style="fill:#ffffff;opacity:0.8;stroke:#cccccc;stroke-linejoin:miter;"/>
    </g>
    <g id="line2d_21">
     <path d="M 327 47.66 
L 347 47.66 
" style="fill:none;stroke:#ff0000;stroke-linecap:square;stroke-width:3;"/>
    </g>
    <g id="line2d_22"/>
    <g id="text_21">
     <!-- $h_0(\lambda)$ -->
     <defs>
      <path d="M 55.71875 33.015625 
L 49.3125 0 
L 40.28125 0 
L 46.6875 32.671875 
Q 47.125 34.96875 47.359375 36.71875 
Q 47.609375 38.484375 47.609375 39.5 
Q 47.609375 43.609375 45.015625 45.890625 
Q 42.4375 48.1875 37.796875 48.1875 
Q 30.5625 48.1875 25.265625 43.296875 
Q 19.96875 38.421875 18.40625 30.328125 
L 12.5 0 
L 3.515625 0 
L 18.3125 75.984375 
L 27.296875 75.984375 
L 21.484375 46.09375 
Q 24.90625 50.6875 30.21875 53.34375 
Q 35.546875 56 41.40625 56 
Q 48.640625 56 52.609375 52.09375 
Q 56.59375 48.1875 56.59375 41.109375 
Q 56.59375 39.359375 56.375 37.359375 
Q 56.15625 35.359375 55.71875 33.015625 
z
" id="DejaVuSans-Oblique-104"/>
      <path d="M 31.78125 66.40625 
Q 24.171875 66.40625 20.328125 58.90625 
Q 16.5 51.421875 16.5 36.375 
Q 16.5 21.390625 20.328125 13.890625 
Q 24.171875 6.390625 31.78125 6.390625 
Q 39.453125 6.390625 43.28125 13.890625 
Q 47.125 21.390625 47.125 36.375 
Q 47.125 51.421875 43.28125 58.90625 
Q 39.453125 66.40625 31.78125 66.40625 
z
M 31.78125 74.21875 
Q 44.046875 74.21875 50.515625 64.515625 
Q 56.984375 54.828125 56.984375 36.375 
Q 56.984375 17.96875 50.515625 8.265625 
Q 44.046875 -1.421875 31.78125 -1.421875 
Q 19.53125 -1.421875 13.0625 8.265625 
Q 6.59375 17.96875 6.59375 36.375 
Q 6.59375 54.828125 13.0625 64.515625 
Q 19.53125 74.21875 31.78125 74.21875 
z
" id="DejaVuSans-48"/>
      <path d="M 31 75.875 
Q 24.46875 64.65625 21.28125 53.65625 
Q 18.109375 42.671875 18.109375 31.390625 
Q 18.109375 20.125 21.3125 9.0625 
Q 24.515625 -2 31 -13.1875 
L 23.1875 -13.1875 
Q 15.875 -1.703125 12.234375 9.375 
Q 8.59375 20.453125 8.59375 31.390625 
Q 8.59375 42.28125 12.203125 53.3125 
Q 15.828125 64.359375 23.1875 75.875 
z
" id="DejaVuSans-40"/>
      <path d="M 8.015625 75.875 
L 15.828125 75.875 
Q 23.140625 64.359375 26.78125 53.3125 
Q 30.421875 42.28125 30.421875 31.390625 
Q 30.421875 20.453125 26.78125 9.375 
Q 23.140625 -1.703125 15.828125 -13.1875 
L 8.015625 -13.1875 
Q 14.5 -2 17.703125 9.0625 
Q 20.90625 20.125 20.90625 31.390625 
Q 20.90625 42.671875 17.703125 53.65625 
Q 14.5 64.65625 8.015625 75.875 
z
" id="DejaVuSans-41"/>
     </defs>
     <g transform="translate(355 51.16)scale(0.1 -0.1)">
      <use transform="translate(0 0.015625)" xlink:href="#DejaVuSans-Oblique-104"/>
      <use transform="translate(63.378906 -16.390625)scale(0.7)" xlink:href="#DejaVuSans-48"/>
      <use transform="translate(110.649414 0.015625)" xlink:href="#DejaVuSans-40"/>
      <use transform="translate(149.663086 0.015625)" xlink:href="#DejaVuSans-Oblique-955"/>
      <use transform="translate(208.842773 0.015625)" xlink:href="#DejaVuSans-41"/>
     </g>
    </g>
    <g id="line2d_23">
     <path d="M 327 62.06 
L 347 62.06 
" style="fill:none;stroke:#0000ff;stroke-linecap:square;stroke-width:3;"/>
    </g>
    <g id="line2d_24"/>
    <g id="text_22">
     <!-- $h_1(\lambda)$ -->
     <defs>
      <path d="M 12.40625 8.296875 
L 28.515625 8.296875 
L 28.515625 63.921875 
L 10.984375 60.40625 
L 10.984375 69.390625 
L 28.421875 72.90625 
L 38.28125 72.90625 
L 38.28125 8.296875 
L 54.390625 8.296875 
L 54.390625 0 
L 12.40625 0 
z
" id="DejaVuSans-49"/>
     </defs>
     <g transform="translate(355 65.56)scale(0.1 -0.1)">
      <use transform="translate(0 0.015625)" xlink:href="#DejaVuSans-Oblique-104"/>
      <use transform="translate(63.378906 -16.390625)scale(0.7)" xlink:href="#DejaVuSans-49"/>
      <use transform="translate(110.649414 0.015625)" xlink:href="#DejaVuSans-40"/>
      <use transform="translate(149.663086 0.015625)" xlink:href="#DejaVuSans-Oblique-955"/>
      <use transform="translate(208.842773 0.015625)" xlink:href="#DejaVuSans-41"/>
     </g>
    </g>
   </g>
  </g>
 </g>
 <defs>
  <clipPath id="p9cb4068445">
   <rect height="217.44" width="334.8" x="54" y="34.56"/>
  </clipPath>
 </defs>
</svg>
